<svg xmlns="http://www.w3.org/2000/svg" xmlns:xlink="http://www.w3.org/1999/xlink" width="500" zoomAndPan="magnify" viewBox="0 0 375 374.999991" height="500" preserveAspectRatio="xMidYMid meet" version="1.0"><defs><g/><clipPath id="fca0ea4e39"><path d="M 133.679688 124.875 L 241.679688 124.875 L 241.679688 250.125 L 133.679688 250.125 Z M 133.679688 124.875 " clip-rule="nonzero"/></clipPath><clipPath id="e3d5621a9c"><path d="M 187.679688 124.875 L 241.679688 156.1875 L 241.679688 218.8125 L 187.679688 250.125 L 133.679688 218.8125 L 133.679688 156.1875 Z M 187.679688 124.875 " clip-rule="nonzero"/></clipPath></defs><g fill="#3500d3" fill-opacity="1"><g transform="translate(156.486257, 216.374986)"><g><path d="M 57.078125 -2.980469 L 43.949219 -22.066406 C 49.722656 -24.023438 56.890625 -30.820312 56.890625 -40.597656 C 56.890625 -46.554688 54.9375 -51.863281 51.492188 -55.214844 C 47.582031 -59.125 43.109375 -61.175781 32.960938 -61.175781 L 9.496094 -61.175781 C 7.355469 -61.175781 6.890625 -60.152344 6.890625 -58.476562 L 6.890625 -2.699219 C 6.890625 -0.558594 7.820312 0 9.496094 0 L 18.714844 0 C 20.390625 0 21.414062 -0.558594 21.414062 -2.699219 L 21.414062 -48.140625 L 33.800781 -48.140625 C 38.640625 -48.140625 42.367188 -45.066406 42.367188 -40.222656 C 42.367188 -35.847656 38.082031 -32.683594 33.519531 -32.683594 L 31.660156 -32.683594 C 29.515625 -32.683594 28.957031 -31.660156 28.957031 -29.980469 L 28.957031 -22.535156 C 28.957031 -19.925781 29.144531 -18.902344 29.980469 -17.785156 L 40.039062 -2.792969 C 41.34375 -0.839844 42.460938 0 44.695312 0 L 55.679688 0 C 57.449219 0 57.914062 -1.675781 57.078125 -2.980469 Z M 57.078125 -2.980469 "/></g></g></g><g clip-path="url(#fca0ea4e39)"><g clip-path="url(#e3d5621a9c)"><path stroke-linecap="butt" transform="matrix(0.752531, 0, 0, 0.75, 133.680185, 124.873293)" fill="none" stroke-linejoin="miter" d="M 71.757153 0.00227653 L 143.514968 41.752279 L 143.514968 125.252285 L 71.757153 167.002287 L -0.00066153 125.252285 L -0.00066153 41.752279 Z M 71.757153 0.00227653 " stroke="#3500d3" stroke-width="8" stroke-opacity="1" stroke-miterlimit="4"/></g></g></svg>